<svg xmlns="http://www.w3.org/2000/svg" viewBox="0 0 32 32">
  <circle cx="16" cy="16" r="16" fill="#f7931a"/>
  <path fill="#fff" d="M22.5 14.2c.3-2-1.2-3-3.3-3.8l.7-2.7-1.6-.4-.7 2.6c-.4-.1-.8-.2-1.3-.3l.7-2.6-1.6-.4-.7 2.7c-.4-.1-.7-.2-1-.2l-2.2-.6-.4 1.7s1.2.3 1.2.3c.6.2.8.6.7 1l-.7 2.9c0 0 .1 0 .2.1h-.2l-1 4c-.1.2-.3.5-.7.4 0 0-1.2-.3-1.2-.3l-.8 1.9 2.1.5c.4.1.8.2 1.2.3l-.7 2.8 1.6.4.7-2.7c.4.1.9.2 1.3.3l-.7 2.7 1.6.4.7-2.8c2.8.5 4.9.3 5.8-2.2.7-2-.1-3.2-1.5-3.9 1.1-.3 1.9-1 2.1-2.5zm-3.7 5.2c-.5 2-3.9.9-5 .7l.9-3.6c1.1.3 4.6.8 4.1 2.9zm.5-5.3c-.5 1.8-3.3.9-4.2.7l.8-3.2c.9.2 3.9.6 3.4 2.5z"/>
</svg>
